<svg
    xmlns="http://www.w3.org/2000/svg"
    viewBox="0 0 24 24"
    id="vector">
    <path
        id="path"
        d="M 4 21 L 5 21 L 5 8 L 4 8 C 3.47 8 2.961 8.211 2.586 8.586 C 2.211 8.961 2 9.47 2 10 L 2 19 C 2 19.53 2.211 20.039 2.586 20.414 C 2.961 20.789 3.47 21 4 21 Z M 20 8 L 13 8 L 14.122 4.632 C 14.256 4.23 14.259 3.795 14.13 3.391 C 14.001 2.988 13.747 2.635 13.404 2.385 C 13.062 2.135 12.649 2 12.225 2 L 12 2 L 7 7.438 L 7 21 L 18 21 L 21.912 12.404 L 22 12 L 22 10 C 22 9.47 21.789 8.961 21.414 8.586 C 21.039 8.211 20.53 8 20 8 Z"
        fill="#ffffff"
        stroke-width="1"/>
</svg>
